Coordinates
version=1
nRows=54
nColumns=12
inDegrees=yes

Units are S.I. units (second, meters, Newtons, ...)
Angles are in degrees

endheader
time	SC_y	SC_z	SC_x	AC_y	AC_z	AC_x	GH_y	GH_z	GH_yy	EL_x	PS_y
       0.0              -24.99          36.96          77.31          45.27         -17.74          16.49          92.63          38.68         -74.66          123.1          140.7
   0.02469               -25.0          36.96          77.31          45.27         -17.73          16.49           92.6          38.68         -74.63          123.1          140.7
   0.04939               -25.0          36.96          77.31          45.27         -17.73          16.48          92.57          38.67         -74.59          123.1          140.7
   0.07408               -25.0          36.95           77.3          45.27         -17.73          16.48          92.53          38.67         -74.55          123.1          140.7
   0.09878              -25.01          36.95           77.3          45.27         -17.72          16.47          92.49          38.67         -74.51          123.1          140.7
    0.1235              -25.01          36.95          77.29          45.27         -17.72          16.46          92.45          38.66         -74.46          123.1          140.6
    0.1482              -25.02          36.95          77.29          45.27         -17.72          16.45          92.41          38.66         -74.41          123.1          140.6
    0.1729              -25.02          36.95          77.28          45.27         -17.71          16.45          92.36          38.66         -74.36          123.1          140.6
    0.1976              -25.03          36.94          77.28          45.28         -17.71          16.44          92.32          38.65          -74.3          123.1          140.6
    0.2222              -25.03          36.94          77.27          45.28          -17.7          16.43          92.26          38.65         -74.24          123.1          140.5
    0.2469              -25.04          36.94          77.27          45.28          -17.7          16.42          92.21          38.64         -74.17          123.1          140.5
    0.2716              -25.04          36.93          77.26          45.28         -17.69          16.41          92.15          38.63          -74.1          123.1          140.5
    0.2963              -25.05          36.93          77.25          45.28         -17.69           16.4          92.08          38.63         -74.03          123.1          140.5
     0.321              -25.06          36.93          77.24          45.28         -17.68          16.39          92.01          38.62         -73.95          123.1          140.4
    0.3457              -25.06          36.92          77.24          45.28         -17.67          16.37          91.94          38.62         -73.86          123.1          140.4
    0.3704              -25.07          36.92          77.23          45.28         -17.67          16.36          91.85          38.61         -73.76          123.1          140.3
    0.3951              -25.08          36.91          77.22          45.28         -17.66          16.34          91.76           38.6         -73.66          123.1          140.3
    0.4198              -25.09          36.91          77.21          45.28         -17.65          16.33          91.67          38.59         -73.55          123.1          140.2
    0.4445               -25.1           36.9          77.19          45.28         -17.64          16.31          91.56          38.58         -73.42          123.1          140.2
    0.4692              -25.12          36.89          77.18          45.29         -17.63          16.29          91.44          38.57         -73.29          123.1          140.1
    0.4939              -25.13          36.89          77.17          45.29         -17.62          16.27          91.31          38.56         -73.14          123.1          140.0
    0.5186              -25.14          36.88          77.15          45.29         -17.61          16.24          91.17          38.54         -72.97          123.1          140.0
    0.5433              -25.16          36.87          77.13          45.29         -17.59          16.22          91.02          38.53         -72.79          123.1          139.9
     0.568              -25.18          36.86          77.11          45.29         -17.58          16.19          90.84          38.51         -72.59          123.1          139.8
    0.5927               -25.2          36.85          77.09           45.3         -17.56          16.16          90.65           38.5         -72.37          123.2          139.7
    0.6173              -25.22          36.84          77.07           45.3         -17.54          16.12          90.44          38.48         -72.12          123.2          139.6
     0.642              -25.24          36.82          77.04           45.3         -17.52          16.08           90.2          38.45         -71.84          123.2          139.5
    0.6667              -25.27          36.81          77.01           45.3         -17.49          16.03          89.92          38.43         -71.53          123.2          139.3
    0.6914               -25.3          36.79          76.98          45.31         -17.47          15.98          89.62           38.4         -71.17          123.2          139.1
    0.7161              -25.34          36.77          76.94          45.31         -17.44          15.92          89.27          38.37         -70.77          123.2          139.0
    0.7408              -25.38          36.75          76.89          45.32          -17.4          15.85          88.88          38.33         -70.31          123.2          138.8
    0.7655              -25.42          36.73          76.84          45.32         -17.36          15.78          88.42          38.29         -69.78          123.3          138.5
    0.7902              -25.48           36.7          76.78          45.33         -17.31          15.69           87.9          38.24         -69.18          123.3          138.2
    0.8149              -25.54          36.66          76.72          45.34         -17.26          15.58          87.29          38.18         -68.47          123.3          137.9
    0.8396              -25.61          36.62          76.64          45.35          -17.2          15.46          86.57          38.12         -67.64          123.3          137.5
    0.8643               -25.7          36.58          76.54          45.36         -17.12          15.32          85.73          38.04         -66.67          123.4          137.1
     0.889               -25.8          36.52          76.43          45.37         -17.03          15.15          84.73          37.95         -65.51          123.4          136.6
    0.9137              -25.92          36.46           76.3          45.38         -16.93          14.95          83.54          37.83         -64.12          123.5          135.9
    0.9384              -26.07          36.38          76.14           45.4          -16.8           14.7          82.09           37.7         -62.44          123.6          135.2
    0.9631              -26.25          36.28          75.94          45.42         -16.64           14.4          80.32          37.53         -60.38          123.6          134.2
    0.9878              -26.48          36.16          75.69          45.45         -16.45          14.03          78.13          37.33         -57.85          123.7          133.1
     1.012              -26.76           36.0          75.39          45.48         -16.21          13.57          75.41          37.08         -54.69          123.9          131.6
     1.037              -27.11          35.81          75.01          45.53          -15.9          12.98          71.98          36.76         -50.71          124.0          129.8
     1.062              -27.55          35.57          74.52          45.58         -15.51          12.24          67.61          36.35         -45.65          124.2          127.5
     1.087              -28.12          35.26           73.9          45.65         -15.02           11.3          62.03          35.83         -39.17          124.5          124.5
     1.111              -28.86          34.87           73.1          45.74         -14.38          10.08          54.86          35.17         -30.86          124.8          120.7
     1.136              -29.79          34.36          72.07          45.85         -13.57          8.524          45.71          34.31         -20.24          125.3          115.9
     1.161              -30.97          33.72          70.79          45.99         -12.54           6.57           34.2          33.24          -6.89          125.8          109.8
     1.185               -32.4          32.94          69.22          46.16          -11.3          4.188          20.17          31.94          9.379          126.5          102.3
      1.21              -34.07          32.04           67.4          46.36         -9.854          1.427          3.915          30.43          28.24          127.3           93.7
     1.235              -35.87          31.06          65.44          46.58          -8.29         -1.562         -13.69          28.79          48.66          128.1          84.36
     1.259              -37.67          30.09          63.47           46.8         -6.726         -4.552         -31.29          27.15          69.07          128.9          75.02
     1.284              -39.33          29.19          61.66           47.0         -5.281         -7.313         -47.55          25.64          87.93          129.7           66.4
     1.309              -40.77          28.41          60.09          47.17         -4.035         -9.694         -61.58          24.33          104.2          130.4          58.96
